<?xml version="1.0" encoding="UTF-8" standalone="no"?>
<svg width="26px" height="19px" viewBox="0 0 26 19" version="1.1" xmlns="http://www.w3.org/2000/svg" xmlns:xlink="http://www.w3.org/1999/xlink" xmlns:sketch="http://www.bohemiancoding.com/sketch/ns">
    <!-- Generator: Sketch 3.3 (11970) - http://www.bohemiancoding.com/sketch -->
    <title>Rectangle 38</title>
    <desc>Created with Sketch.</desc>
    <defs></defs>
    <g id="Page-1" stroke="none" stroke-width="1" fill="none" fill-rule="evenodd" sketch:type="MSPage">
        <g id="Menu" sketch:type="MSArtboardGroup" transform="translate(-17.000000, -268.000000)" fill="#7D7D7D">
            <g id="list1" sketch:type="MSLayerGroup" transform="translate(0.000000, 220.500000)">
                <g id="cell2" transform="translate(17.000000, 48.000000)" sketch:type="MSShapeGroup">
                    <path d="M22.1046506,1.5 C21.5573197,1.5 21.1136204,1.94236357 21.1136204,2.49932 L21.1136204,14.7954545 L23.4501492,16.5 L25.6808931,14.7954545 L25.6808931,2.49932 C25.6808931,1.9474108 25.2262679,1.5 24.689863,1.5 L22.1046506,1.5 Z M22.8363636,3.3999939 L22.8363636,6.3999939 L23.9781818,6.3999939 L23.9781818,3.3999939 L22.8363636,3.3999939 Z M2.00656308,0 C0.898368893,0 0,0.892622799 0,1.99508929 L0,16.0049107 C0,17.1067681 0.90434455,18 2.00656308,18 L16.7432934,18 C17.8514876,18 18.7498565,17.1073772 18.7498565,16.0049107 L18.7498565,1.99508929 C18.7498565,0.893231902 17.8455119,0 16.7432934,0 L2.00656308,0 Z M2.08331738,1.8 L2.08331738,16.2 L16.6665391,16.2 L16.6665391,1.8 L2.08331738,1.8 Z M4.16663477,4.5 L4.16663477,6.5 L6.45027113,6.5 L6.45027113,4.5 L4.16663477,4.5 Z M4.16663477,8.1 L4.16663477,9.9 L14.5832217,9.9 L14.5832217,8.1 L4.16663477,8.1 Z M8.33326954,11.7 L8.33326954,13.5 L14.5832217,13.5 L14.5832217,11.7 L8.33326954,11.7 Z" id="Rectangle-38"></path>
                </g>
            </g>
        </g>
    </g>
</svg>