<?xml version="1.0" encoding="UTF-8" standalone="no"?>
<svg width="24px" height="14px" viewBox="0 0 24 14" version="1.1" xmlns="http://www.w3.org/2000/svg" xmlns:xlink="http://www.w3.org/1999/xlink" xmlns:sketch="http://www.bohemiancoding.com/sketch/ns">
    <!-- Generator: Sketch 3.3 (11970) - http://www.bohemiancoding.com/sketch -->
    <title>People</title>
    <desc>Created with Sketch.</desc>
    <defs></defs>
    <g id="Page-1" stroke="none" stroke-width="1" fill="none" fill-rule="evenodd" sketch:type="MSPage">
        <g id="Menu" sketch:type="MSArtboardGroup" transform="translate(-16.000000, -319.000000)" fill="#7D7D7D">
            <g id="list1" sketch:type="MSLayerGroup" transform="translate(0.000000, 220.500000)">
                <g id="cell3" transform="translate(16.000000, 96.500000)" sketch:type="MSShapeGroup">
                    <path d="M15.9260042,8.1038961 C17.6831734,8.1038961 19.1005877,6.89863636 19.1005877,5.41558442 C19.1005877,3.93253247 17.6831734,2.72727273 15.9260042,2.72727273 C14.1688351,2.72727273 12.7408034,3.93253247 12.7408034,5.41558442 C12.7408034,6.89863636 14.1688351,8.1038961 15.9260042,8.1038961 L15.9260042,8.1038961 Z M7.43213531,8.1038961 C9.18930444,8.1038961 10.6067188,6.89863636 10.6067188,5.41558442 C10.6067188,3.93253247 9.18930444,2.72727273 7.43213531,2.72727273 C5.67496617,2.72727273 4.24693446,3.93253247 4.24693446,5.41558442 C4.24693446,6.89863636 5.67496617,8.1038961 7.43213531,8.1038961 L7.43213531,8.1038961 Z M7.43213531,9.8961039 C4.95298732,9.8961039 0,10.9445455 0,13.0324675 L0,15.2727273 L14.8642706,15.2727273 L14.8642706,13.0324675 C14.8642706,10.9445455 9.9112833,9.8961039 7.43213531,9.8961039 L7.43213531,9.8961039 Z M15.9260042,9.8961039 C15.6181015,9.8961039 15.2730381,9.91402597 14.9014313,9.94538961 C16.1330423,10.6936364 16.9877378,11.7017532 16.9877378,13.0324675 L16.9877378,15.2727273 L23.3581395,15.2727273 L23.3581395,13.0324675 C23.3581395,10.9445455 18.4051522,9.8961039 15.9260042,9.8961039 L15.9260042,9.8961039 Z" id="People"></path>
                </g>
            </g>
        </g>
    </g>
</svg>